<svg width="138" height="30" viewBox="0 0 138 30" fill="none" xmlns="http://www.w3.org/2000/svg">
<path d="M0.737146 0V9.3501H2.34818L2.34818 1.61103H21.7095V18.7084C21.7095 19.9798 21.4591 21.2387 20.9726 22.4132C20.4861 23.5878 19.773 24.655 18.874 25.554C17.975 26.4529 16.9078 27.166 15.7332 27.6526C14.5587 28.139 13.2998 28.3895 12.0285 28.3895C10.7571 28.3895 9.49821 28.139 8.32366 27.6526C7.14911 27.166 6.08187 26.4529 5.1829 25.554C4.28394 24.655 3.57084 23.5878 3.08431 22.4132C2.59779 21.2387 2.34738 19.9798 2.34738 18.7084V17.3689H8.41857V18.7084C8.41857 19.6654 8.79874 20.5832 9.47542 21.2599C10.1521 21.9366 11.0699 22.3167 12.0269 22.3167C12.9838 22.3167 13.9016 21.9366 14.5783 21.2599C15.255 20.5832 15.6351 19.6654 15.6351 18.7084V7.68355H8.41937V9.3501H13.971V18.7084C13.971 19.2237 13.7663 19.7178 13.402 20.0822C13.0376 20.4465 12.5435 20.6512 12.0282 20.6512C11.5129 20.6512 11.0188 20.4465 10.6544 20.0822C10.2901 19.7178 10.0854 19.2237 10.0854 18.7084V15.701H2.34711H0.736084V18.7076C0.736084 21.7025 1.9258 24.5747 4.04349 26.6924C6.16121 28.8103 9.03342 30 12.0283 30C15.0232 30 17.8954 28.8103 20.0131 26.6924C22.1308 24.5747 23.3206 21.7025 23.3206 18.7076V0H0.737146Z" fill="#231D4F"/>
<path d="M12.0306 23.7036C10.7056 23.7026 9.43513 23.1759 8.49802 22.2392C7.56088 21.3024 7.03366 20.0322 7.03204 18.7072H5.36842C5.36842 20.4738 6.07021 22.1681 7.31943 23.4173C8.56862 24.6665 10.2629 25.3683 12.0296 25.3683C13.7962 25.3683 15.4905 24.6665 16.7397 23.4173C17.9889 22.1681 18.6907 20.4738 18.6907 18.7072V4.62891H3.42383V9.34805H5.08746V6.29333H17.0247V18.7061C17.0238 20.0307 16.4975 21.3008 15.5612 22.2377C14.625 23.1747 13.3552 23.7019 12.0306 23.7036Z" fill="#BB6BD9"/>
<path d="M41.1046 22.9928C40.5259 23.8328 39.8259 24.3928 39.0046 24.6728C38.2019 24.9342 37.3152 24.9902 36.3446 24.8408C35.3739 24.7102 34.3659 24.4582 33.3206 24.0848L34.2446 20.8088C34.8419 21.0515 35.4299 21.2288 36.0086 21.3408C36.6059 21.4342 37.1286 21.4435 37.5766 21.3688C38.2299 21.2755 38.6312 20.8462 38.7806 20.0808C38.9299 19.3155 39.0046 18.2982 39.0046 17.0288V5.18485H42.2806V17.0288C42.2806 18.3728 42.1966 19.5395 42.0286 20.5288C41.8606 21.5182 41.5526 22.3395 41.1046 22.9928Z" fill="#231D4F"/>
<path d="M49.1235 24.9248C47.7048 24.8502 46.6315 24.4488 45.9035 23.7208C45.1755 22.9742 44.8115 21.9475 44.8115 20.6408C44.8115 19.6888 45.0542 18.8768 45.5395 18.2048C46.0248 17.5142 46.6688 16.9728 47.4715 16.5808C48.2742 16.1888 49.1608 15.9462 50.1315 15.8528C51.1208 15.7595 52.1195 15.8248 53.1275 16.0488V15.1808C53.1275 14.5835 52.8848 14.1542 52.3995 13.8928C51.9142 13.6315 51.3168 13.5102 50.6075 13.5288C49.9168 13.5475 49.2168 13.6875 48.5075 13.9488C47.8168 14.1915 47.2568 14.5462 46.8275 15.0128L44.9515 12.9688C45.6608 12.2782 46.5008 11.7368 47.4715 11.3448C48.4422 10.9528 49.4408 10.7288 50.4675 10.6728C51.5128 10.6168 52.4928 10.7382 53.4075 11.0368C54.3408 11.3355 55.1062 11.8208 55.7035 12.4928C56.1702 13.0155 56.4315 13.7062 56.4875 14.5648C56.5435 15.4235 56.5715 16.3662 56.5715 17.3928V24.7848H53.1555V23.4968C52.5768 24.0382 51.9328 24.4208 51.2235 24.6448C50.5142 24.8502 49.8142 24.9435 49.1235 24.9248ZM53.0435 20.8368V18.4288C51.1022 18.2795 49.7488 18.4008 48.9835 18.7928C48.2368 19.1848 47.8635 19.7915 47.8635 20.6128C47.8635 21.1355 48.0408 21.5182 48.3955 21.7608C48.7688 21.9848 49.2262 22.0968 49.7675 22.0968C50.3275 22.0782 50.8968 21.9662 51.4755 21.7608C52.0728 21.5368 52.5955 21.2288 53.0435 20.8368Z" fill="#231D4F"/>
<path d="M62.6409 24.5328C61.8196 24.1595 61.1476 23.6182 60.6249 22.9088C60.1023 22.1808 59.7103 21.3502 59.4489 20.4168C59.2063 19.4835 59.0849 18.5222 59.0849 17.5328C59.0849 16.2448 59.3183 15.0782 59.7849 14.0328C60.2516 12.9875 60.9329 12.1568 61.8289 11.5408C62.7436 10.9062 63.8636 10.5888 65.1889 10.5888C65.6183 10.5888 66.1129 10.6355 66.6729 10.7288C67.2516 10.8222 67.7183 10.9995 68.0729 11.2608V5.18485H71.4329V24.7848H68.0729V23.6648C67.7556 24.0382 67.2703 24.3368 66.6169 24.5608C65.9636 24.7662 65.2729 24.8688 64.5449 24.8688C63.8356 24.8875 63.2009 24.7755 62.6409 24.5328ZM68.0729 20.8648V14.4248C67.1023 14.0328 66.1876 13.9022 65.3289 14.0328C64.4889 14.1635 63.7983 14.5275 63.2569 15.1248C62.7343 15.7035 62.4729 16.5062 62.4729 17.5328C62.4729 18.7462 62.7343 19.7075 63.2569 20.4168C63.7796 21.1075 64.4609 21.5088 65.3009 21.6208C66.1596 21.7142 67.0836 21.4622 68.0729 20.8648Z" fill="#231D4F"/>
<path d="M96.9891 10.7848L92.2291 24.7848H88.1411L85.2011 15.3488L82.2891 24.7848H78.2011L73.4131 10.7848H77.1931L80.2171 21.0888L83.4651 10.7848H86.9651L90.2131 21.0608L93.2091 10.7848H96.9891Z" fill="#231D4F"/>
<path d="M102.143 24.9248C100.724 24.8502 99.651 24.4488 98.923 23.7208C98.195 22.9742 97.831 21.9475 97.831 20.6408C97.831 19.6888 98.0737 18.8768 98.559 18.2048C99.0444 17.5142 99.6884 16.9728 100.491 16.5808C101.294 16.1888 102.18 15.9462 103.151 15.8528C104.14 15.7595 105.139 15.8248 106.147 16.0488V15.1808C106.147 14.5835 105.904 14.1542 105.419 13.8928C104.934 13.6315 104.336 13.5102 103.627 13.5288C102.936 13.5475 102.236 13.6875 101.527 13.9488C100.836 14.1915 100.276 14.5462 99.847 15.0128L97.971 12.9688C98.6804 12.2782 99.5204 11.7368 100.491 11.3448C101.462 10.9528 102.46 10.7288 103.487 10.6728C104.532 10.6168 105.512 10.7382 106.427 11.0368C107.36 11.3355 108.126 11.8208 108.723 12.4928C109.19 13.0155 109.451 13.7062 109.507 14.5648C109.563 15.4235 109.591 16.3662 109.591 17.3928V24.7848H106.175V23.4968C105.596 24.0382 104.952 24.4208 104.243 24.6448C103.534 24.8502 102.834 24.9435 102.143 24.9248ZM106.063 20.8368V18.4288C104.122 18.2795 102.768 18.4008 102.003 18.7928C101.256 19.1848 100.883 19.7915 100.883 20.6128C100.883 21.1355 101.06 21.5182 101.415 21.7608C101.788 21.9848 102.246 22.0968 102.787 22.0968C103.347 22.0782 103.916 21.9662 104.495 21.7608C105.092 21.5368 105.615 21.2288 106.063 20.8368Z" fill="#231D4F"/>
<path d="M115.744 24.7848H112.384V5.18485H115.744V24.7848Z" fill="#231D4F"/>
<path d="M120.581 9.13285C120.002 9.13285 119.517 8.93685 119.125 8.54485C118.733 8.15285 118.537 7.66751 118.537 7.08885C118.537 6.52885 118.733 6.05285 119.125 5.66085C119.517 5.26885 120.002 5.07285 120.581 5.07285C121.141 5.07285 121.617 5.26885 122.009 5.66085C122.401 6.05285 122.597 6.52885 122.597 7.08885C122.597 7.66751 122.401 8.15285 122.009 8.54485C121.617 8.93685 121.141 9.13285 120.581 9.13285ZM122.121 24.7848H119.041V10.7848H122.121V24.7848Z" fill="#231D4F"/>
<path d="M138 24.7848H134.64V16.6088C134.64 15.8435 134.491 15.2742 134.192 14.9008C133.912 14.5088 133.557 14.2475 133.128 14.1168C132.717 13.9862 132.316 13.9208 131.924 13.9208C131.551 13.9208 131.112 13.9862 130.608 14.1168C130.123 14.2475 129.693 14.5088 129.32 14.9008C128.947 15.2742 128.76 15.8435 128.76 16.6088V24.7848H125.4V10.7848H128.76V11.7928C129.077 11.3635 129.572 11.0648 130.244 10.8968C130.916 10.7102 131.56 10.6168 132.176 10.6168C133.371 10.6168 134.397 10.8688 135.256 11.3728C136.133 11.8768 136.805 12.5768 137.272 13.4728C137.757 14.3688 138 15.4142 138 16.6088V24.7848Z" fill="#231D4F"/>
</svg>
